<svg xmlns="http://www.w3.org/2000/svg" version="1.1" xmlns:xlink="http://www.w3.org/1999/xlink" xmlns:svgjs="http://svgjs.com/svgjs" width="140.57297mm" height="140.57297mm"><svg width="140.57297mm" height="140.57297mm" viewBox="0 0 140.57297 140.57297" version="1.1" id="SvgjsSvg1006" xmlns="http://www.w3.org/2000/svg" xmlns:svg="http://www.w3.org/2000/svg">
  <defs id="SvgjsDefs1005"></defs>
  <g id="SvgjsG1004" transform="translate(-34.713516,-78.213516)">
    <rect style="fill:#00e5b9;fill-opacity:1;fill-rule:evenodd;stroke-width:0.412757" id="SvgjsRect1003" width="140.57297" height="140.57297" x="34.713516" y="78.213516" rx="15.040046" ry="15.040046"></rect>
    <g aria-label="Q" id="SvgjsG1002" style="font-weight:300;font-size:105.833px;line-height:1.25;font-family:Mont;-inkscape-font-specification:'Mont Light';fill:#000000;stroke-width:0.264583;fill-opacity:1">
      <path id="SvgjsPath1001" d="m 103.47656,105.01367 c -8.643801,0.16277 -17.318371,3.03283 -24.015415,8.57238 -6.958403,5.6533 -11.559811,13.96891 -13.043014,22.77807 -1.755541,10.18764 0.120639,21.15391 5.996561,29.75696 4.871185,7.26106 12.487512,12.54086 20.917942,14.78688 7.504506,2.0036 15.567196,1.95623 23.039486,-0.17256 3.12562,-0.90455 6.13787,-2.21752 8.90327,-3.93462 4.61096,5.06609 9.22486,10.12952 13.83399,15.19727 1.92252,0 3.84505,0 5.76757,0 -5.32543,-5.86923 -10.65105,-11.73827 -15.97656,-17.60743 7.05596,-5.44534 11.86557,-13.58086 13.54915,-22.3068 2.03016,-10.36509 0.28143,-21.62093 -5.62172,-30.47633 -4.87033,-7.4315 -12.58572,-12.85954 -21.15252,-15.14478 -3.96558,-1.08433 -8.09131,-1.53987 -12.19874,-1.44904 z m 1.04688,4.4336 c 5.49755,-0.006 11.03285,1.14587 16.01953,3.62695 5.32952,2.63278 9.90809,6.79476 13.03711,11.88672 1.20572,1.94849 2.30107,4.23947 3.04958,6.38152 2.43767,6.92904 2.7223,14.57448 0.90745,21.73176 -1.52677,5.95646 -4.76639,11.5629 -9.2207,15.73242 -0.81945,0.75773 -1.66569,1.48794 -2.5586,2.1582 -6.11777,-6.78261 -12.23607,-13.56475 -18.35351,-20.34765 -1.92253,0 -3.84506,0 -5.76758,0 6.85793,7.5763 13.71617,15.15232 20.57422,22.72851 -4.19052,2.42172 -8.89604,3.8741 -13.66343,4.36573 -5.27922,0.53227 -10.536503,0.059 -15.59439,-1.60363 -6.920659,-2.24456 -13.144918,-6.94289 -17.102763,-13.11388 -3.091855,-4.73255 -4.914495,-10.38161 -5.370534,-15.97459 -0.473759,-5.75278 0.267231,-11.51847 2.406896,-16.87871 0.911097,-2.28377 2.150398,-4.62153 3.591976,-6.67115 4.324963,-6.26681 10.972576,-10.8159 18.31818,-12.76244 3.154894,-0.85108 6.455485,-1.26061 9.726565,-1.25976 z" style="fill:#000000;fill-opacity:1"></path>
      <path d="m 143.68196,191.4682 -15.55745,-17.14495 c 9.10164,-6.87914 14.60495,-17.77994 14.60495,-30.58573 0,-21.8016 -15.98078,-38.20572 -38.20571,-38.20572 -22.330762,0 -38.205712,16.50995 -38.205712,38.20572 0,21.69576 15.87495,38.09988 38.205712,38.09988 7.93748,0 15.02829,-2.01083 20.8491,-5.71499 l 13.96996,15.34579 z m -39.15821,-13.01746 c -20.214102,0 -34.713223,-15.02829 -34.713223,-34.71322 0,-19.79078 14.499121,-34.81906 34.713223,-34.81906 20.2141,0 34.71323,14.92245 34.71323,34.81906 0,11.74746 -5.18582,21.80159 -13.54663,27.93991 l -18.52077,-20.5316 h -4.33916 l 20.21411,22.33076 c -5.29165,3.17499 -11.5358,4.97415 -18.52078,4.97415 z" id="SvgjsPath1000" style="fill:#000000;fill-opacity:1"></path>
    </g>
  </g>
</svg><style>@media (prefers-color-scheme: light) { :root { filter: contrast(1) brightness(0.9); } }
@media (prefers-color-scheme: dark) { :root { filter: contrast(0.9090909090909091) brightness(1.5); } }
</style></svg>